<svg xmlns="http://www.w3.org/2000/svg" viewBox="0 0 24 24" fill="none"><path fill-rule="evenodd" clip-rule="evenodd" d="M12 3.5A6.5 6.5 0 0 0 5.5 10c0 2.06.926 4.079 2.157 5.843 1.226 1.756 2.706 3.188 3.701 4.057a.962.962 0 0 0 1.284 0c.995-.87 2.475-2.301 3.7-4.057C17.575 14.079 18.5 12.059 18.5 10A6.5 6.5 0 0 0 12 3.5ZM4 10a8 8 0 1 1 16 0c0 2.495-1.112 4.817-2.427 6.702-1.322 1.893-2.9 3.415-3.944 4.328a2.461 2.461 0 0 1-3.258 0c-1.044-.913-2.622-2.435-3.944-4.328C5.112 14.817 4 12.495 4 10Zm8-2a2 2 0 1 0 0 4 2 2 0 0 0 0-4Zm-3.5 2a3.5 3.5 0 1 1 7 0 3.5 3.5 0 0 1-7 0Z" fill="#000000"/></svg>